<svg width="26" height="26" viewBox="0 0 26 26" fill="none" xmlns="http://www.w3.org/2000/svg">
<path d="M10.1003 4H15.9003C16.7014 4 17.4946 4.15778 18.2347 4.46433C18.9748 4.77089 19.6472 5.22021 20.2137 5.78665C20.7801 6.35309 21.2294 7.02554 21.536 7.76563C21.8425 8.50572 22.0003 9.29894 22.0003 10.1V23C22.0003 23.5304 21.7896 24.0391 21.4145 24.4142C21.0394 24.7893 20.5307 25 20.0003 25H6.00031C5.46987 25 4.96116 24.7893 4.58609 24.4142C4.21102 24.0391 4.00031 23.5304 4.00031 23V10.1C4.00031 8.48218 4.64298 6.93062 5.78695 5.78665C6.93093 4.64268 8.48248 4 10.1003 4V4Z" stroke="white" stroke-width="2" stroke-linecap="round" stroke-linejoin="round"/>
<path d="M11.0003 4V2C11.0003 1.73478 11.1057 1.48043 11.2932 1.29289C11.4807 1.10536 11.7351 1 12.0003 1H14.0003C14.2655 1 14.5199 1.10536 14.7074 1.29289C14.8949 1.48043 15.0003 1.73478 15.0003 2V4" stroke="white" stroke-width="2" stroke-linecap="round" stroke-linejoin="round"/>
<path d="M8.00031 16H18.0003V19.53C18.0003 20.1851 17.7401 20.8133 17.2769 21.2766C16.8136 21.7398 16.1854 22 15.5303 22H10.4703C9.81522 22 9.18697 21.7398 8.72375 21.2766C8.26054 20.8133 8.00031 20.1851 8.00031 19.53V16Z" stroke="white" stroke-width="2" stroke-linecap="round" stroke-linejoin="round"/>
<path d="M17.0003 8H9.00031" stroke="white" stroke-width="2" stroke-linecap="round" stroke-linejoin="round"/>
<path d="M10.0003 10V8" stroke="white" stroke-width="2" stroke-linecap="round" stroke-linejoin="round"/>
<path d="M4.0003 15H2.5103C2.30805 15.0039 2.10855 15.0476 1.9232 15.1286C1.73785 15.2096 1.57028 15.3264 1.43005 15.4722C1.28983 15.618 1.1797 15.79 1.10596 15.9783C1.03223 16.1667 0.99632 16.3678 1.0003 16.57V21.43C0.99632 21.6322 1.03223 21.8333 1.10596 22.0217C1.1797 22.21 1.28983 22.382 1.43005 22.5278C1.57028 22.6736 1.73785 22.7904 1.9232 22.8714C2.10855 22.9524 2.30805 22.9961 2.5103 23H4.0003" stroke="white" stroke-width="2" stroke-linecap="round" stroke-linejoin="round"/>
<path d="M22.0003 15H23.4903C23.6926 15.0039 23.892 15.0476 24.0774 15.1286C24.2628 15.2096 24.4303 15.3264 24.5706 15.4722C24.7108 15.618 24.8209 15.79 24.8946 15.9783C24.9684 16.1667 25.0043 16.3678 25.0003 16.57V21.43C25.0043 21.6322 24.9684 21.8333 24.8946 22.0217C24.8209 22.21 24.7108 22.382 24.5706 22.5278C24.4303 22.6736 24.2628 22.7904 24.0774 22.8714C23.892 22.9524 23.6926 22.9961 23.4903 23H22.0003" stroke="white" stroke-width="2" stroke-linecap="round" stroke-linejoin="round"/>
</svg>
