<svg width="29" height="28" viewBox="0 0 29 28" fill="none" xmlns="http://www.w3.org/2000/svg">
<path d="M13.9598 27V26V27ZM27.0015 13.9343H28.0015H27.0015ZM27.0015 27V28C27.3281 28 27.6342 27.8405 27.8212 27.5727C28.0083 27.3049 28.0528 26.9627 27.9404 26.656L27.0015 27ZM24.8348 21.0865L24.0034 20.5309C23.8259 20.7964 23.786 21.1307 23.8958 21.4305L24.8348 21.0865ZM10.0015 11C9.44918 11 9.00146 11.4477 9.00146 12C9.00146 12.5523 9.44918 13 10.0015 13V11ZM18.0015 13C18.5537 13 19.0015 12.5523 19.0015 12C19.0015 11.4477 18.5537 11 18.0015 11V13ZM10.0015 16C9.44918 16 9.00146 16.4477 9.00146 17C9.00146 17.5523 9.44918 18 10.0015 18V16ZM14.0015 18C14.5537 18 15.0015 17.5523 15.0015 17C15.0015 16.4477 14.5537 16 14.0015 16V18ZM28.0015 13.9343C28.0015 6.23382 21.7287 -3.57628e-07 14.0015 0V2C20.6337 2 26.0015 7.34793 26.0015 13.9343H28.0015ZM14.0015 0C6.27426 3.57628e-07 0.00146449 6.23382 0.00146484 13.9343H2.00146C2.00146 7.34793 7.36926 2 14.0015 2V0ZM0.00146484 13.9343C0.0014652 21.6174 6.21532 28 13.9598 28V26C7.3449 26 2.00147 20.538 2.00146 13.9343H0.00146484ZM25.6662 21.6421C27.1415 19.4344 28.0015 16.783 28.0015 13.9343H26.0015C26.0015 16.3746 25.2661 18.6414 24.0034 20.5309L25.6662 21.6421ZM27.9404 26.656L25.7738 20.7425L23.8958 21.4305L26.0625 27.344L27.9404 26.656ZM13.9598 28H27.0015V26H13.9598V28ZM10.0015 13H18.0015V11H10.0015V13ZM10.0015 18H14.0015V16H10.0015V18Z" fill="white"/>
</svg>
