<svg width="24" height="24" viewBox="0 0 24 24" fill="none" xmlns="http://www.w3.org/2000/svg">
<path fill-rule="evenodd" clip-rule="evenodd" d="M12 1.84615C6.39219 1.84615 1.84615 6.39219 1.84615 12C1.84615 17.6078 6.39219 22.1538 12 22.1538C17.6078 22.1538 22.1538 17.6078 22.1538 12C22.1538 6.39219 17.6078 1.84615 12 1.84615ZM0 12C0 5.37258 5.37258 0 12 0C18.6274 0 24 5.37258 24 12C24 18.6274 18.6274 24 12 24C5.37258 24 0 18.6274 0 12Z" fill="white"/>
<path fill-rule="evenodd" clip-rule="evenodd" d="M3.49301 3.96161C3.85412 3.60176 4.43858 3.60277 4.79844 3.96388C5.74176 4.91049 6.86268 5.66157 8.09689 6.17406C9.33111 6.68654 10.6544 6.95035 11.9907 6.95035C13.3271 6.95035 14.6504 6.68654 15.8846 6.17406C17.1188 5.66157 18.2397 4.91049 19.1831 3.96388C19.5429 3.60277 20.1274 3.60176 20.4885 3.96161C20.8496 4.32147 20.8506 4.90593 20.4907 5.26704C19.3759 6.38576 18.0512 7.2734 16.5926 7.87907C15.1339 8.48473 13.5701 8.7965 11.9907 8.7965C10.4114 8.7965 8.84754 8.48473 7.38892 7.87907C5.9303 7.2734 4.60558 6.38576 3.49074 5.26704C3.13088 4.90593 3.1319 4.32147 3.49301 3.96161Z" fill="white"/>
<path fill-rule="evenodd" clip-rule="evenodd" d="M7.38892 16.5918C8.84754 15.9861 10.4114 15.6743 11.9907 15.6743C13.5701 15.6743 15.1339 15.9861 16.5926 16.5918C18.0512 17.1974 19.3759 18.0851 20.4907 19.2038C20.8506 19.5649 20.8496 20.1493 20.4885 20.5092C20.1274 20.8691 19.5429 20.868 19.1831 20.5069C18.2397 19.5603 17.1188 18.8092 15.8846 18.2968C14.6504 17.7843 13.3271 17.5205 11.9907 17.5205C10.6544 17.5205 9.33111 17.7843 8.09689 18.2968C6.86267 18.8092 5.74176 19.5603 4.79844 20.5069C4.43858 20.868 3.85412 20.8691 3.49301 20.5092C3.1319 20.1493 3.13088 19.5649 3.49074 19.2038C4.60558 18.0851 5.9303 17.1974 7.38892 16.5918Z" fill="white"/>
<path fill-rule="evenodd" clip-rule="evenodd" d="M8.90939 4.58025C7.9838 6.43143 7.38467 9.05342 7.38467 12C7.38467 14.9466 7.9838 17.5686 8.90939 19.4198C9.86259 21.3262 11.0086 22.1538 12.0001 22.1538C12.9915 22.1538 14.1375 21.3262 15.0907 19.4198C16.0163 17.5686 16.6154 14.9466 16.6154 12C16.6154 9.05342 16.0163 6.43143 15.0907 4.58025C14.1375 2.67384 12.9915 1.84615 12.0001 1.84615C11.0086 1.84615 9.86259 2.67384 8.90939 4.58025ZM7.25814 3.75462C8.30947 1.65196 9.93265 0 12.0001 0C14.0675 0 15.6906 1.65196 16.742 3.75462C17.8209 5.91249 18.4616 8.82896 18.4616 12C18.4616 15.171 17.8209 18.0875 16.742 20.2454C15.6906 22.348 14.0675 24 12.0001 24C9.93265 24 8.30947 22.348 7.25814 20.2454C6.17921 18.0875 5.53851 15.171 5.53851 12C5.53851 8.82896 6.17921 5.91249 7.25814 3.75462Z" fill="white"/>
<path fill-rule="evenodd" clip-rule="evenodd" d="M0 12C0 11.4902 0.413276 11.0769 0.923077 11.0769H23.0769C23.5867 11.0769 24 11.4902 24 12C24 12.5098 23.5867 12.9231 23.0769 12.9231H0.923077C0.413276 12.9231 0 12.5098 0 12Z" fill="white"/>
<path fill-rule="evenodd" clip-rule="evenodd" d="M12 0C12.5098 0 12.923 0.413276 12.923 0.923077V23.0769C12.923 23.5867 12.5098 24 12 24C11.4902 24 11.0769 23.5867 11.0769 23.0769V0.923077C11.0769 0.413276 11.4902 0 12 0Z" fill="white"/>
</svg>
