<svg width="24" height="23" viewBox="0 0 24 23" fill="none" xmlns="http://www.w3.org/2000/svg">
<g clip-path="url(#clip0)">
<path d="M3.65945 23H19.9212C21.7789 23 23.2903 21.4886 23.2903 19.6309V3.36914C23.2903 1.51138 21.7789 0 19.9212 0H3.65945C1.80169 0 0.290314 1.51138 0.290314 3.36914V19.6309C0.290314 21.4886 1.80169 23 3.65945 23ZM1.63797 3.36914C1.63797 2.25452 2.54483 1.34766 3.65945 1.34766H19.9212C21.0358 1.34766 21.9427 2.25452 21.9427 3.36914V19.6309C21.9427 20.7455 21.0358 21.6523 19.9212 21.6523H3.65945C2.54483 21.6523 1.63797 20.7455 1.63797 19.6309V3.36914Z" fill="#5C5C5C"/>
<path d="M11.7903 17.5645C15.1342 17.5645 17.8548 14.8439 17.8548 11.5C17.8548 8.15613 15.1342 5.43555 11.7903 5.43555C8.44644 5.43555 5.72586 8.15613 5.72586 11.5C5.72586 14.8439 8.44644 17.5645 11.7903 17.5645ZM11.7903 6.7832C14.3912 6.7832 16.5071 8.89909 16.5071 11.5C16.5071 14.1009 14.3912 16.2168 11.7903 16.2168C9.18941 16.2168 7.07352 14.1009 7.07352 11.5C7.07352 8.89909 9.18941 6.7832 11.7903 6.7832Z" fill="#5C5C5C"/>
<path d="M18.5286 6.7832C19.6432 6.7832 20.5501 5.87634 20.5501 4.76172C20.5501 3.64709 19.6432 2.74023 18.5286 2.74023C17.414 2.74023 16.5071 3.64709 16.5071 4.76172C16.5071 5.87634 17.414 6.7832 18.5286 6.7832ZM18.5286 4.08789C18.9001 4.08789 19.2024 4.39024 19.2024 4.76172C19.2024 5.1332 18.9001 5.43555 18.5286 5.43555C18.1571 5.43555 17.8548 5.1332 17.8548 4.76172C17.8548 4.39024 18.1571 4.08789 18.5286 4.08789Z" fill="#5C5C5C"/>
</g>
<defs>
<clipPath id="clip0">
<rect width="23" height="23" fill="white" transform="translate(0.290314)"/>
</clipPath>
</defs>
</svg>
