<svg width="73" height="18" viewBox="0 0 73 18" fill="none" xmlns="http://www.w3.org/2000/svg">
<path d="M0 16.7052V6.53955H0.142177H2.98572V9.73064L5.20526 6.53955H5.35534H8.6886L5.17367 11.105L9.49427 16.7052H9.34419H5.78977L2.98572 12.5505V16.7052H2.84354H0Z" fill="#0095DB"/>
<path d="M10.213 6.53955H12.9539V12.4241L16.7453 6.53955H16.8874H19.6757V16.7052H19.5335H16.7848V10.8365L13.0565 16.7052H12.9144H10.0629V6.53955H10.213Z" fill="#0095DB"/>
<path d="M22.0296 16.7052V6.53955H22.1717H25.0153V16.7052H24.8731H22.0296Z" fill="#0095DB"/>
<path d="M27.3848 6.53943H32.3057C33.0158 6.48227 33.7253 6.65687 34.3278 7.03706C34.7101 7.30645 35.0042 7.68297 35.1729 8.11918C35.2333 8.29124 35.2783 8.46833 35.3072 8.64838C35.3309 8.80531 35.344 8.96363 35.3467 9.12231C35.3593 9.61057 35.1904 10.0862 34.8728 10.4572C34.5768 10.8131 34.1928 11.0854 33.7591 11.2471C33.9036 11.2841 34.0459 11.329 34.1856 11.3814C34.3615 11.4466 34.5308 11.5286 34.6911 11.6262C35.0179 11.8338 35.3021 12.1019 35.5284 12.4161C35.8024 12.8378 35.9352 13.3357 35.9075 13.8379C35.9119 13.8931 35.9119 13.9485 35.9075 14.0037C35.9075 14.059 35.9075 14.1143 35.9075 14.1775C35.8251 14.8299 35.5179 15.4332 35.0387 15.8836C34.7058 16.1726 34.3182 16.3915 33.8988 16.5272C33.4794 16.663 33.037 16.7127 32.598 16.6735H27.2268V6.53943H27.3848ZM30.2362 14.6672H31.6975C31.8253 14.6668 31.9526 14.6509 32.0766 14.6198C32.2928 14.5682 32.4933 14.4653 32.6611 14.3197C32.7547 14.2263 32.8265 14.1135 32.8716 13.9893C32.9166 13.8651 32.9338 13.7325 32.9218 13.6009C32.9325 13.4735 32.9139 13.3452 32.8673 13.2261C32.8208 13.107 32.7475 13.0001 32.6533 12.9137C32.4845 12.7773 32.2876 12.6802 32.0766 12.6293C31.9635 12.6219 31.8501 12.6219 31.737 12.6293H30.2362V14.7146V14.6672ZM30.2362 10.5441H31.2789C31.591 10.5689 31.9037 10.503 32.1793 10.3545C32.3417 10.243 32.468 10.0866 32.5427 9.9043C32.5501 9.84926 32.5501 9.79345 32.5427 9.73841C32.5466 9.68846 32.5466 9.63828 32.5427 9.58833C32.5416 9.32768 32.443 9.07689 32.2662 8.88536C32.125 8.76644 31.9614 8.67716 31.7849 8.62288C31.6085 8.56859 31.423 8.55042 31.2394 8.56941H30.1967V10.5599L30.2362 10.5441Z" fill="#0095DB"/>
<path d="M49.091 16.7052V9.32781H46.2633V6.53955H46.4055H54.9045V9.32781H52.0846V16.7052H51.9345H49.2332H49.091Z" fill="#0095DB"/>
<path d="M53.5299 16.7052L57.1475 6.53955H60.7494L64.3512 16.7052H61.1522L60.6072 14.9438H57.2976L56.7289 16.7052H53.5694H53.5299ZM58.9485 9.12244L57.8584 12.7085H60.0385L58.9801 9.12244H58.9485Z" fill="#0095DB"/>
<path d="M64.8722 16.7063V6.54071H69.3034C70.169 6.47324 71.0299 6.72002 71.7283 7.2358C72.2238 7.63989 72.5983 8.17284 72.8104 8.77603C72.878 8.97133 72.9282 9.17221 72.9605 9.37634C72.9605 9.5817 73 10.0082 73 10.1662C72.9978 10.3511 72.9846 10.5358 72.9605 10.7191C72.9283 10.9258 72.8781 11.1293 72.8104 11.3273C72.6074 11.9331 72.2345 12.4677 71.7362 12.8676C71.0385 13.3921 70.1738 13.6448 69.3034 13.5785H67.8658V16.6905H64.8722V16.7063ZM67.8658 8.80763V11.351H68.5293C68.8475 11.3765 69.1661 11.3078 69.4456 11.1535C69.6137 11.0467 69.7501 10.8967 69.8405 10.7191C69.8774 10.6199 69.9013 10.5164 69.9116 10.4111C69.9116 10.3163 69.9116 10.2373 69.9116 10.182C69.9116 10.1267 69.9116 9.81866 69.9116 9.76337V9.58959C69.8537 9.36856 69.7263 9.17197 69.5483 9.02879C69.2517 8.83434 68.8984 8.74531 68.5451 8.77603L67.8658 8.80763Z" fill="#0095DB"/>
<path d="M41.9584 16.9982H41.7057C40.9938 17.0227 40.2849 16.8945 39.6268 16.6219C38.9687 16.3494 38.3767 15.939 37.8906 15.4184C37.1414 14.5658 36.6701 13.5049 36.5399 12.3774V12.3221V12.2668V12.1404C36.5399 12.0772 36.5399 12.0141 36.5399 11.9509V11.8877V11.8245V11.7534V11.6902V11.5559V11.4927V11.4216V11.3506V11.2874C36.5399 11.2242 36.5399 11.161 36.5399 11.0899V11.0346V10.9793V10.924C36.6701 9.79652 37.1414 8.7356 37.8906 7.88301C38.3767 7.36237 38.9687 6.95198 39.6268 6.67947C40.2849 6.40696 40.9938 6.27868 41.7057 6.30326H41.9584H42.1006C42.4814 6.30289 42.8617 6.33195 43.238 6.39016C44.3096 6.58322 45.2734 7.16205 45.9473 8.0173C46.0026 8.07259 46.05 8.13578 46.0974 8.19107L44.0358 9.84981C44.0001 9.78989 43.9577 9.73424 43.9094 9.68394C43.587 9.28405 43.1524 8.98971 42.6614 8.83877C42.5591 8.80163 42.4532 8.77515 42.3455 8.75978H42.1638H42.0137C41.9138 8.75201 41.8135 8.75201 41.7136 8.75978L41.4687 8.81508H41.3818C40.8981 8.97579 40.4724 9.27519 40.1575 9.67604C39.7911 10.2623 39.5969 10.9397 39.5969 11.631C39.5969 12.3223 39.7911 12.9997 40.1575 13.5859C40.4746 13.9844 40.8996 14.2833 41.3818 14.4469H41.4687L41.7136 14.5021H41.9979H42.1717H42.3455C42.4532 14.4868 42.5591 14.4603 42.6614 14.4232C43.1524 14.2722 43.587 13.9779 43.9094 13.578C43.9577 13.5277 44.0001 13.472 44.0358 13.4121L46.0974 15.0709C46.05 15.1262 46.0026 15.1893 45.9473 15.2446C45.2753 16.0982 44.3146 16.6769 43.2459 16.8718C42.8665 16.926 42.4839 16.955 42.1006 16.9587H41.9584V16.9982Z" fill="#0095DB"/>
<path fill-rule="evenodd" clip-rule="evenodd" d="M20.189 0.0157888C20.7159 0.0142256 21.2313 0.169013 21.67 0.460552C22.1088 0.752091 22.4512 1.16728 22.6539 1.65354C22.8566 2.13979 22.9104 2.67524 22.8086 3.19212C22.7068 3.70899 22.4539 4.18403 22.082 4.55709C21.71 4.93015 21.2357 5.18446 20.7191 5.28781C20.2026 5.39116 19.667 5.33892 19.1801 5.13769C18.6933 4.93645 18.2771 4.59527 17.9842 4.15736C17.6914 3.71944 17.5351 3.20447 17.5351 2.67766C17.5351 1.97306 17.8144 1.29719 18.3119 0.798216C18.8094 0.299243 19.4844 0.0178797 20.189 0.0157888ZM26.8477 0.0157888C27.3764 0.00795195 27.8955 0.157797 28.3388 0.446185C28.782 0.734573 29.1293 1.14844 29.3364 1.63502C29.5435 2.1216 29.6009 2.65884 29.5014 3.17821C29.4019 3.69757 29.15 4.17553 28.7778 4.55114C28.4055 4.92674 27.9299 5.18295 27.4114 5.28711C26.893 5.39127 26.3553 5.33864 25.8668 5.13595C25.3784 4.93326 24.9614 4.5897 24.6691 4.14906C24.3767 3.70842 24.2222 3.19068 24.2253 2.66188C24.2253 1.95727 24.5047 1.2814 25.0021 0.782427C25.4996 0.283454 26.1746 0.00209083 26.8792 0L26.8477 0.0157888Z" fill="#FFCC00"/>
</svg>
