<svg width="73" height="23" viewBox="0 0 73 23" fill="none" xmlns="http://www.w3.org/2000/svg">
<path fill-rule="evenodd" clip-rule="evenodd" d="M0 11.5C0 5.175 5.22451 0 11.7373 0C18.25 0 23.4745 5.175 23.4745 11.5C23.4745 17.825 18.25 23 11.7373 23C10.449 23 9.23235 22.7844 8.08725 22.425C8.94608 17.6813 11.952 13.8 16.0314 12.1469C16.5324 12.7219 17.248 13.0094 18.0353 13.0094C19.4667 13.0094 20.6118 11.8594 20.6118 10.4219C20.6118 8.98438 19.4667 7.83437 18.0353 7.83437C16.6039 7.83437 15.4588 8.98438 15.4588 10.4219C10.3059 11.9312 6.1549 15.4531 4.00784 19.9812C3.36373 19.4062 2.71961 18.7594 2.21863 17.9688C2.36176 13.5844 4.58039 9.70312 7.87255 7.40313C8.37353 7.97813 9.08922 8.26562 9.8049 8.26562C11.2363 8.26562 12.3814 7.11562 12.3814 5.67812C12.3814 4.24062 11.2363 3.09063 9.8049 3.09063C8.37353 3.09063 7.22843 4.24062 7.22843 5.67812C7.22843 5.75 7.22843 5.82188 7.22843 5.89375C4.15098 6.97187 1.57451 9.05625 0.0715686 11.7875C0 11.7875 0 11.6438 0 11.5Z" fill="#FCCF00"/>
<path fill-rule="evenodd" clip-rule="evenodd" d="M68.8189 14.7341V5.74971C68.8189 5.60596 68.7473 5.60596 68.6042 5.60596H66.2424C66.0993 5.60596 66.0277 5.67783 66.0277 5.74971V15.3091C66.0277 17.0341 66.815 17.3216 68.6758 17.3216C68.7473 17.3216 68.7473 17.3216 68.8189 17.2497C68.8905 17.2497 68.8189 17.106 68.8189 17.106V14.7341ZM31.3885 14.7341V5.74971C31.3885 5.60596 31.3169 5.60596 31.1738 5.60596H28.812C28.6689 5.60596 28.5973 5.67783 28.5973 5.74971V15.3091C28.5973 17.0341 29.3846 17.3216 31.1738 17.3216C31.2454 17.3216 31.2454 17.3216 31.3169 17.2497C31.3885 17.2497 31.3169 17.106 31.3169 17.106L31.3885 14.7341ZM37.3287 17.3935C37.1856 17.3935 37.1856 17.3216 37.1856 17.2497V10.9247C37.1856 10.8528 37.1856 10.8528 37.114 10.8528H36.613C36.4699 10.8528 36.4699 10.781 36.4699 10.7091V9.34346C36.4699 9.19971 36.5414 9.19971 36.613 9.19971H37.114C37.1856 9.19971 37.1856 9.19971 37.1856 9.12783V8.55283C37.1856 6.61221 38.116 5.74971 40.0483 5.74971H41.3365C41.4797 5.74971 41.4797 5.82158 41.4797 5.89346V7.40283C41.4797 7.54658 41.4081 7.54658 41.3365 7.54658H40.4777C39.762 7.54658 39.5473 7.76221 39.5473 8.40908V9.05596C39.5473 9.12783 39.5473 9.12783 39.6189 9.12783H40.6924C40.8356 9.12783 40.8356 9.19971 40.8356 9.27158V10.6372C40.8356 10.781 40.764 10.781 40.6924 10.781H39.6189C39.5473 10.781 39.5473 10.781 39.5473 10.8528V17.2497C39.5473 17.3935 39.4758 17.3935 39.4042 17.3935C39.3326 17.3935 37.3287 17.3935 37.3287 17.3935ZM32.6767 7.25908C32.5336 7.25908 32.462 7.18721 32.462 7.11533V5.74971C32.462 5.60596 32.5336 5.60596 32.6767 5.60596H35.0385C35.2532 5.60596 35.3248 5.67783 35.3248 5.74971V7.11533C35.3248 7.18721 35.2532 7.25908 35.1101 7.25908H32.6767ZM32.6767 17.3935C32.5336 17.3935 32.462 17.3216 32.462 17.2497V9.12783C32.462 8.98408 32.5336 8.98408 32.6767 8.98408H35.0385C35.1816 8.98408 35.2532 9.05596 35.2532 9.12783V17.2497C35.2532 17.3935 35.1816 17.3935 35.0385 17.3935H32.6767ZM50.5689 15.0935C50.4258 14.5903 50.3542 13.9435 50.3542 13.1528C50.3542 12.3622 50.4258 11.7153 50.5689 11.2122C50.9983 9.70283 52.2865 8.91221 54.0042 8.91221C55.2924 8.91221 56.4375 9.48721 57.0101 10.4216C57.0816 10.4935 57.0816 10.5653 57.0101 10.6372L55.5787 11.5716C55.5071 11.6435 55.364 11.6435 55.364 11.5716C55.0062 11.1403 54.5767 10.8528 54.0758 10.8528C53.4316 10.8528 53.0022 11.1403 52.8591 11.7153C52.7875 12.0028 52.716 12.4341 52.716 13.081C52.716 13.7278 52.7875 14.1591 52.8591 14.4466C53.0738 15.0216 53.4316 15.3091 54.0758 15.3091C54.5767 15.3091 55.0062 15.0935 55.364 14.5903C55.4356 14.5185 55.5071 14.5185 55.5787 14.5903L57.0101 15.5247C57.0816 15.5966 57.0816 15.6685 57.0101 15.7403C56.4375 16.6747 55.2924 17.2497 54.0042 17.2497C52.3581 17.3935 51.0699 16.6028 50.5689 15.0935ZM62.9503 12.3622C63.0218 12.3622 63.0218 12.3622 63.0218 12.2903C63.0218 12.0747 63.0218 11.8591 62.9503 11.7153C62.7356 11.1403 62.3062 10.8528 61.5905 10.8528C60.9464 10.8528 60.3022 11.1403 60.0875 11.7153C60.016 11.931 60.016 12.0747 60.016 12.2903C60.016 12.3622 60.016 12.3622 60.0875 12.3622C60.1591 12.3622 62.9503 12.3622 62.9503 12.3622ZM57.9405 15.0935C57.7258 14.5185 57.6542 13.8716 57.6542 13.1528C57.6542 12.4341 57.7258 11.7872 57.9405 11.2122C58.4414 9.77471 59.8013 8.91221 61.5905 8.91221C63.4513 8.91221 64.7395 9.77471 65.2405 11.1403C65.4552 11.7153 65.4552 12.506 65.4552 13.5841C65.4552 13.7278 65.3836 13.7278 65.2405 13.7278H60.1591C60.0875 13.7278 60.0875 13.7278 60.0875 13.7997C60.0875 13.9435 60.0875 14.0872 60.1591 14.231C60.3738 14.9497 61.0179 15.3091 61.9483 15.3091C62.664 15.3091 63.165 15.0935 63.5228 14.8778C63.8091 14.6622 63.8091 14.5903 64.0238 14.7341L65.312 15.5966C65.4552 15.6685 65.3836 15.7403 65.312 15.8122C64.3816 16.7466 63.2365 17.1778 61.662 17.1778C59.7297 17.3935 58.3699 16.531 57.9405 15.0935ZM46.7758 12.3622C46.8473 12.3622 46.8473 12.3622 46.8473 12.2903C46.8473 12.0747 46.8473 11.8591 46.7758 11.7153C46.5611 11.1403 46.1316 10.8528 45.416 10.8528C44.7718 10.8528 44.1277 11.1403 43.9846 11.7153C43.913 11.931 43.913 12.1466 43.913 12.2903C43.913 12.3622 43.913 12.3622 43.9846 12.3622H46.7758ZM41.6944 15.0935C41.4797 14.5185 41.4081 13.8716 41.4081 13.1528C41.4081 12.4341 41.4797 11.7872 41.6944 11.2122C42.1954 9.77471 43.5552 8.91221 45.3444 8.91221C47.2052 8.91221 48.4934 9.77471 48.9944 11.1403C49.2091 11.7153 49.2091 12.506 49.2091 13.5841C49.2091 13.7278 49.1375 13.7278 48.9944 13.7278H43.913C43.8414 13.7278 43.8414 13.7278 43.8414 13.7997C43.8414 13.9435 43.8414 14.0872 43.913 14.231C44.1277 14.9497 44.7718 15.3091 45.7022 15.3091C46.4179 15.3091 46.9189 15.0935 47.2767 14.8778C47.563 14.6622 47.563 14.5903 47.7777 14.7341L49.066 15.5966C49.2091 15.6685 49.1375 15.7403 49.066 15.8122C48.1356 16.7466 46.9905 17.1778 45.416 17.1778C43.5552 17.3935 42.1954 16.531 41.6944 15.0935ZM72.1826 14.7341V5.74971C72.1826 5.60596 72.1111 5.60596 71.9679 5.60596H69.6062C69.463 5.60596 69.3915 5.67783 69.3915 5.74971V15.3091C69.3915 17.0341 70.1787 17.3216 72.0395 17.3216C72.1111 17.3216 72.1111 17.3216 72.1826 17.2497C72.2542 17.2497 72.1826 17.106 72.1826 17.106V14.7341Z" fill="#333333"/>
</svg>
