<svg width="25" height="25" viewBox="0 0 25 25" fill="none" xmlns="http://www.w3.org/2000/svg">
<path d="M24.2676 7.8125H21.0132C20.6404 3.44243 16.9649 0 12.5 0C8.03506 0 4.35957 3.44243 3.98682 7.8125H0.732422C0.32793 7.8125 0 8.14043 0 8.54492C0 8.94941 0.32793 9.27734 0.732422 9.27734H1.04907C1.22363 12.0667 2.39253 14.665 4.38623 16.6587C6.02607 18.2985 8.075 19.3804 10.3027 19.8101V23.5352H7.61719C7.2127 23.5352 6.88477 23.8631 6.88477 24.2676C6.88477 24.6721 7.2127 25 7.61719 25H17.3828C17.7873 25 18.1152 24.6721 18.1152 24.2676C18.1152 23.8631 17.7873 23.5352 17.3828 23.5352H14.6973V19.8101C16.925 19.3804 18.9739 18.2985 20.6138 16.6586C22.6075 14.6649 23.7764 12.0667 23.9509 9.27729H24.2676C24.6721 9.27729 25 8.94936 25 8.54487C25 8.14038 24.6721 7.8125 24.2676 7.8125ZM12.5 1.46484C16.404 1.46484 19.5801 4.64097 19.5801 8.54492C19.5801 12.4489 16.404 15.625 12.5 15.625C8.59604 15.625 5.41992 12.4489 5.41992 8.54492C5.41992 4.64097 8.59604 1.46484 12.5 1.46484ZM13.2324 23.5352H11.7676V19.9958C12.0104 20.011 12.2545 20.0195 12.5 20.0195C12.7455 20.0195 12.9896 20.011 13.2324 19.9958V23.5352ZM12.5 18.5547C7.2269 18.5547 2.89346 14.4561 2.51714 9.27734H3.98682C4.35962 13.6474 8.03511 17.0898 12.5 17.0898C16.9649 17.0898 20.6404 13.6474 21.0132 9.27734H22.4829C22.1065 14.4561 17.7731 18.5547 12.5 18.5547Z" fill="white"/>
<path d="M9.04734 9.96794C9.23479 9.96794 9.42224 9.89646 9.56521 9.75339L13.7084 5.61018C13.9945 5.32415 13.9945 4.86042 13.7084 4.57439C13.4224 4.28835 12.9587 4.28835 12.6726 4.57439L8.52942 8.7176C8.24339 9.00364 8.24339 9.46736 8.52942 9.75339C8.67244 9.89646 8.85989 9.96794 9.04734 9.96794Z" fill="white"/>
<path d="M11.2915 12.5156C11.4345 12.6586 11.622 12.7302 11.8094 12.7302C11.9968 12.7302 12.1843 12.6587 12.3272 12.5156L16.4705 8.37239C16.7565 8.08635 16.7565 7.62263 16.4705 7.3366C16.1845 7.05056 15.7207 7.05056 15.4347 7.3366L11.2915 11.4798C11.0055 11.7658 11.0055 12.2296 11.2915 12.5156Z" fill="white"/>
</svg>
