<svg width="21" height="24" viewBox="0 0 21 24" fill="none" xmlns="http://www.w3.org/2000/svg">
<path d="M20.2449 0.781993C20.2357 0.729493 20.223 0.676993 20.2044 0.62515C20.0284 0.134653 19.4883 -0.120205 18.9978 0.0556219L7.35019 4.23385C7.34391 4.2361 7.3381 4.23905 7.33196 4.24144C7.31368 4.24847 7.29558 4.25593 7.27782 4.26404C7.26591 4.26943 7.25429 4.2751 7.24271 4.28096C7.22761 4.28865 7.21271 4.29661 7.19813 4.3051C7.18472 4.31283 7.1715 4.3208 7.15861 4.32914C7.14671 4.33683 7.13513 4.34466 7.12365 4.35286C7.10944 4.36294 7.09547 4.3733 7.08188 4.38408C7.07218 4.39182 7.06276 4.39979 7.05333 4.40785C7.03955 4.41975 7.02605 4.43189 7.01302 4.4445C7.00421 4.45303 6.99568 4.46185 6.98724 4.47075C6.9751 4.4835 6.96315 4.49639 6.95176 4.50975C6.94294 4.52007 6.93451 4.53071 6.92616 4.54135C6.91637 4.55391 6.90671 4.56657 6.89752 4.5796C6.88857 4.59225 6.88018 4.60524 6.87188 4.61836C6.86438 4.63017 6.85702 4.64203 6.85013 4.65422C6.8416 4.66913 6.83363 4.68427 6.82599 4.69969C6.82032 4.71103 6.81474 4.72238 6.80949 4.73395C6.80218 4.75013 6.79548 4.76658 6.78905 4.78322C6.78446 4.79513 6.78001 4.80708 6.77593 4.81922C6.77044 4.83534 6.76557 4.85156 6.76098 4.86802C6.75708 4.88194 6.75343 4.89586 6.75024 4.90997C6.74687 4.92464 6.74391 4.93945 6.74119 4.95436C6.7381 4.97128 6.73562 4.98825 6.73341 5.00536C6.73182 5.01792 6.73046 5.03058 6.72943 5.04333C6.72779 5.06302 6.72685 5.08275 6.72643 5.10262C6.72629 5.10919 6.72544 5.11547 6.72544 5.12198V16.1335C6.0354 15.6631 5.20244 15.3876 4.30615 15.3876C1.93171 15.3876 0 17.3193 0 19.6937C0 22.0682 1.93171 23.9999 4.30615 23.9999C6.68059 23.9999 8.61234 22.0682 8.61234 19.6937V5.78578L18.401 2.27439V12.0754C17.711 11.605 16.878 11.3295 15.9817 11.3295C13.6073 11.3295 11.6756 13.2613 11.6756 15.6357C11.6756 18.0101 13.6073 19.9419 15.9817 19.9419C18.3561 19.9419 20.2879 18.0101 20.2879 15.6357V1.0639C20.2878 0.965695 20.2728 0.871055 20.2449 0.781993ZM4.30605 22.113C2.97204 22.113 1.88685 21.0277 1.88685 19.6937C1.88685 18.3597 2.97209 17.2744 4.30605 17.2744C5.64001 17.2744 6.72535 18.3597 6.72535 19.6937C6.7253 21.0277 5.64001 22.113 4.30605 22.113ZM15.9816 18.055C14.6476 18.055 13.5624 16.9697 13.5624 15.6357C13.5624 14.3017 14.6476 13.2164 15.9816 13.2164C17.3156 13.2164 18.4009 14.3017 18.4009 15.6357C18.4009 16.9697 17.3156 18.055 15.9816 18.055Z" fill="white"/>
</svg>
