<svg width="16" height="27" viewBox="0 0 16 27" fill="none" xmlns="http://www.w3.org/2000/svg">
<path d="M3.86 20.2H12.15C12.9068 20.2026 13.6317 20.5051 14.1659 21.0412C14.7001 21.5772 15 22.3032 15 23.06V25.2H1V23.06C1 22.3014 1.30132 21.574 1.83767 21.0376C2.37403 20.5013 3.10148 20.2 3.86 20.2V20.2Z" stroke="white" stroke-width="2" stroke-linecap="round" stroke-linejoin="round"/>
<path d="M2 10.6L3 20.2H13L14 10.6L8 1L2 10.6Z" stroke="white" stroke-width="2" stroke-linecap="round" stroke-linejoin="round"/>
<path d="M8 12.2C8.55228 12.2 9 11.7522 9 11.2C9 10.6477 8.55228 10.2 8 10.2C7.44772 10.2 7 10.6477 7 11.2C7 11.7522 7.44772 12.2 8 12.2Z" stroke="white" stroke-width="2" stroke-linecap="round" stroke-linejoin="round"/>
<path d="M8 11.2V1.19995" stroke="white" stroke-width="2" stroke-linecap="round" stroke-linejoin="round"/>
</svg>
