<svg width="20" height="20" viewBox="0 0 20 20" fill="none" xmlns="http://www.w3.org/2000/svg">
<path d="M14.679 0.523353L11.8879 3.31441C10.8911 4.31122 11.2899 6.00579 12.5857 6.40452C13.4828 6.70356 13.9812 7.70036 13.7818 8.59749C13.2834 10.5911 10.6917 13.2825 8.59844 13.7809C7.70127 14.0799 6.70446 13.4818 6.40546 12.5847C6.00674 11.2889 4.31217 10.8901 3.31536 11.887L0.5243 14.678C-0.173465 15.4755 -0.173465 16.6716 0.5243 17.3694L2.41823 19.2633C4.41185 21.1573 9.69492 19.064 14.3799 14.379C19.0649 9.69398 21.2579 4.4109 19.2643 2.41729L17.3703 0.523353C16.5729 -0.174451 15.3767 -0.174451 14.679 0.523353Z" fill="#3E3E3E"/>
</svg>
