<svg width="13" height="14" viewBox="0 0 13 14" fill="none" xmlns="http://www.w3.org/2000/svg">
<path d="M12.6591 9.56076L10.8411 7.74276C10.1918 7.09347 9.08802 7.35321 8.82831 8.19726C8.63352 8.78164 7.98423 9.10629 7.39987 8.9764C6.1013 8.65176 4.34822 6.96361 4.02358 5.60011C3.82879 5.01572 4.21836 4.36644 4.80272 4.17167C5.6468 3.91196 5.90651 2.80817 5.25722 2.15888L3.43922 0.340876C2.91979 -0.113625 2.14064 -0.113625 1.68614 0.340876L0.452493 1.57452C-0.781154 2.8731 0.582351 6.31432 3.634 9.36598C6.68566 12.4176 10.1269 13.8461 11.4255 12.5475L12.6591 11.3138C13.1136 10.7944 13.1136 10.0153 12.6591 9.56076Z" fill="#3E3E3E"/>
</svg>
