<svg width="16" height="16" viewBox="0 0 16 16" fill="none" xmlns="http://www.w3.org/2000/svg">
<g clip-path="url(#clip0)">
<path d="M8.00098 0.25C3.58162 0.25 0.000976562 3.71875 0.000976562 8C0.000976562 12.2813 3.58162 15.75 8.00098 15.75C12.4203 15.75 16.001 12.2813 16.001 8C16.001 3.71875 12.4203 0.25 8.00098 0.25ZM11.93 5.55938L10.6171 11.5531C10.5203 11.9781 10.259 12.0813 9.89452 11.8813L7.89452 10.4531L6.93001 11.3531C6.82356 11.4563 6.73323 11.5438 6.52678 11.5438L6.66872 9.57188L10.3752 6.32813C10.5365 6.19063 10.3397 6.1125 10.1268 6.25L5.54614 9.04375L3.57194 8.44688C3.14291 8.31563 3.13323 8.03125 3.66227 7.83125L11.3752 4.95C11.7332 4.825 12.0461 5.03438 11.93 5.55938Z" fill="#2CA3E0"/>
</g>
<defs>
<clipPath id="clip0">
<rect width="16" height="16" fill="white" transform="translate(0.000976562)"/>
</clipPath>
</defs>
</svg>
