<svg width="17" height="17" viewBox="0 0 17 17" fill="none" xmlns="http://www.w3.org/2000/svg">
<path d="M15.2263 4.47258C14.9611 3.52534 14.4358 2.77598 13.6654 2.24558C12.693 1.57544 11.5747 1.33812 10.6091 1.19396C9.27256 0.994716 8.06216 0.966496 6.90922 1.1076C5.82768 1.2402 5.01406 1.45134 4.27082 1.79304C2.81528 2.46182 1.94148 3.54404 1.67424 5.00978C1.5447 5.72106 1.45732 6.36468 1.40666 6.9777C1.29004 8.39618 1.39578 9.65112 1.73034 10.8146C2.0564 11.9488 2.62624 12.7591 3.47216 13.2912C3.68806 13.4268 3.9638 13.5251 4.2307 13.6196C4.38234 13.6733 4.52956 13.7253 4.6506 13.7814C4.76212 13.8331 4.76212 13.843 4.7611 13.9361C4.75158 14.7426 4.7611 16.3226 4.7611 16.3226L4.76314 16.6599H5.36936L5.4683 16.5647C5.53222 16.5031 7.034 15.0527 7.56848 14.4689L7.64124 14.387C7.73338 14.2816 7.73338 14.2816 7.82824 14.2799C8.5504 14.2656 9.28854 14.2377 10.0219 14.1979C10.9107 14.1493 11.9402 14.0636 12.9095 13.659C13.7969 13.2884 14.4443 12.7006 14.8336 11.9114C15.2396 11.0883 15.4806 10.1968 15.5711 9.186C15.7295 7.4095 15.617 5.8676 15.2263 4.47258ZM12.031 11.3827C11.8086 11.7462 11.4758 11.9978 11.0837 12.1617C10.7975 12.2814 10.5051 12.2562 10.2229 12.1365C7.85374 11.1342 5.99666 9.55422 4.76858 7.28336C4.51562 6.81586 4.3395 6.3062 4.13788 5.81184C4.0964 5.71018 4.09912 5.59084 4.0811 5.48C4.09844 4.681 4.71112 4.23186 5.32992 4.09552C5.56656 4.04316 5.77566 4.1268 5.95144 4.29442C6.43696 4.75784 6.82082 5.29504 7.11016 5.89786C7.23698 6.16204 7.17986 6.3963 6.96396 6.59282C6.91942 6.63362 6.8725 6.6717 6.82422 6.70808C6.33258 7.078 6.26016 7.35748 6.5223 7.91406C6.96872 8.8613 7.7089 9.4971 8.66702 9.8915C8.91964 9.99554 9.1573 9.9442 9.35008 9.73952C9.37592 9.71198 9.40516 9.6858 9.4242 9.65418C9.80194 9.02416 10.3497 9.08672 10.8553 9.4461C11.1874 9.6824 11.5104 9.93093 11.8389 10.172C12.3397 10.5395 12.3353 10.885 12.031 11.3827ZM8.88972 5.09988C8.77854 5.09988 8.66668 5.10906 8.55686 5.12742C8.37122 5.1587 8.19646 5.03324 8.16552 4.84794C8.13458 4.66264 8.2597 4.48754 8.445 4.4566C8.59154 4.43246 8.74114 4.41988 8.88972 4.41988C10.3629 4.41988 11.5611 5.61838 11.5611 7.09126C11.5611 7.24086 11.5485 7.39046 11.5244 7.53632C11.4962 7.70224 11.3523 7.81988 11.1891 7.81988C11.1704 7.81988 11.1514 7.81852 11.1324 7.81512C10.9474 7.78384 10.8223 7.60874 10.8536 7.42344C10.8719 7.31498 10.8811 7.20346 10.8811 7.09126C10.8811 5.99306 9.98792 5.09988 8.88972 5.09988ZM10.5411 7.13988C10.5411 7.32756 10.3888 7.47988 10.2011 7.47988C10.0134 7.47988 9.8611 7.32756 9.8611 7.13988C9.8611 6.57752 9.40346 6.11988 8.8411 6.11988C8.65342 6.11988 8.5011 5.96756 8.5011 5.77988C8.5011 5.5922 8.65342 5.43988 8.8411 5.43988C9.77848 5.43988 10.5411 6.2025 10.5411 7.13988ZM12.4822 7.89502C12.4465 8.05312 12.3064 8.15988 12.151 8.15988C12.1262 8.15988 12.1007 8.15716 12.0755 8.15138C11.8923 8.1099 11.7777 7.92766 11.8192 7.74474C11.8685 7.52748 11.8933 7.30342 11.8933 7.078C11.8933 5.42492 10.5482 4.07988 8.89516 4.07988C8.66974 4.07988 8.44568 4.1047 8.22842 4.154C8.04618 4.19616 7.86326 4.0809 7.82178 3.89764C7.7803 3.71438 7.89488 3.53248 8.07814 3.491C8.3447 3.43048 8.61976 3.39988 8.8955 3.39988C10.9236 3.39988 12.5736 5.0499 12.5736 7.078C12.5736 7.35374 12.5427 7.6288 12.4822 7.89502Z" fill="#7C58EA"/>
</svg>
