<svg width="16" height="16" viewBox="0 0 16 16" fill="none" xmlns="http://www.w3.org/2000/svg">
<g clip-path="url(#clip0)">
<path d="M8.00298 0H7.99898C3.58798 0 0.000976562 3.588 0.000976562 8C0.000976562 9.75 0.564977 11.372 1.52398 12.689L0.526977 15.661L3.60198 14.678C4.86698 15.516 6.37598 16 8.00298 16C12.414 16 16.001 12.411 16.001 8C16.001 3.589 12.414 0 8.00298 0ZM12.658 11.297C12.465 11.842 11.699 12.294 11.088 12.426C10.67 12.515 10.124 12.586 8.28598 11.824C5.93498 10.85 4.42098 8.461 4.30298 8.306C4.18998 8.151 3.35298 7.041 3.35298 5.893C3.35298 4.745 3.93598 4.186 4.17098 3.946C4.36398 3.749 4.68298 3.659 4.98898 3.659C5.08798 3.659 5.17698 3.664 5.25698 3.668C5.49198 3.678 5.60998 3.692 5.76498 4.063C5.95798 4.528 6.42798 5.676 6.48398 5.794C6.54098 5.912 6.59798 6.072 6.51798 6.227C6.44298 6.387 6.37698 6.458 6.25898 6.594C6.14098 6.73 6.02898 6.834 5.91098 6.98C5.80298 7.107 5.68098 7.243 5.81698 7.478C5.95298 7.708 6.42298 8.475 7.11498 9.091C8.00798 9.886 8.73198 10.14 8.99098 10.248C9.18398 10.328 9.41398 10.309 9.55498 10.159C9.73398 9.966 9.95498 9.646 10.18 9.331C10.34 9.105 10.542 9.077 10.754 9.157C10.97 9.232 12.113 9.797 12.348 9.914C12.583 10.032 12.738 10.088 12.795 10.187C12.851 10.286 12.851 10.751 12.658 11.297Z" fill="#90C563"/>
</g>
<defs>
<clipPath id="clip0">
<rect width="16" height="16" fill="white" transform="translate(0.000976562)"/>
</clipPath>
</defs>
</svg>
